<?xml version="1.0" encoding="UTF-8" standalone="no"?>
<!-- Created with Inkscape (http://www.inkscape.org/) -->

<svg
   xmlns:dc="http://purl.org/dc/elements/1.1/"
   xmlns:cc="http://creativecommons.org/ns#"
   xmlns:rdf="http://www.w3.org/1999/02/22-rdf-syntax-ns#"
   xmlns:svg="http://www.w3.org/2000/svg"
   xmlns="http://www.w3.org/2000/svg"
   xmlns:sodipodi="http://sodipodi.sourceforge.net/DTD/sodipodi-0.dtd"
   xmlns:inkscape="http://www.inkscape.org/namespaces/inkscape"
   version="1.1"
   id="svg2"
   xml:space="preserve"
   width="226.38264"
   height="244.80566"
   viewBox="0 0 226.38264 244.80566"
   sodipodi:docname="Acumlogo.svg"
   inkscape:version="0.92.3 (2405546, 2018-03-11)"><metadata
     id="metadata8"><rdf:RDF><cc:Work
         rdf:about=""><dc:format>image/svg+xml</dc:format><dc:type
           rdf:resource="http://purl.org/dc/dcmitype/StillImage" /><dc:title></dc:title></cc:Work></rdf:RDF></metadata><defs
     id="defs6"><clipPath
       clipPathUnits="userSpaceOnUse"
       id="clipPath18"><path
         d="M 0,0 H 595.276 V 841.89 H 0 Z"
         id="path16"
         inkscape:connector-curvature="0" /></clipPath><clipPath
       clipPathUnits="userSpaceOnUse"
       id="clipPath46"><path
         d="M 0,0 H 595.276 V 841.89 H 0 Z"
         id="path44"
         inkscape:connector-curvature="0" /></clipPath><clipPath
       clipPathUnits="userSpaceOnUse"
       id="clipPath72"><path
         d="M 0,0 H 595.276 V 841.89 H 0 Z"
         id="path70"
         inkscape:connector-curvature="0" /></clipPath><clipPath
       clipPathUnits="userSpaceOnUse"
       id="clipPath96"><path
         d="M 0,0 H 595.276 V 841.89 H 0 Z"
         id="path94"
         inkscape:connector-curvature="0" /></clipPath><clipPath
       clipPathUnits="userSpaceOnUse"
       id="clipPath116"><path
         d="M 0,0 H 595.276 V 841.89 H 0 Z"
         id="path114"
         inkscape:connector-curvature="0" /></clipPath><clipPath
       clipPathUnits="userSpaceOnUse"
       id="clipPath136"><path
         d="M 0,0 H 595.276 V 841.89 H 0 Z"
         id="path134"
         inkscape:connector-curvature="0" /></clipPath><clipPath
       clipPathUnits="userSpaceOnUse"
       id="clipPath156"><path
         d="M 0,0 H 595.276 V 841.89 H 0 Z"
         id="path154"
         inkscape:connector-curvature="0" /></clipPath><clipPath
       clipPathUnits="userSpaceOnUse"
       id="clipPath194"><path
         d="M 0,0 H 595.276 V 841.89 H 0 Z"
         id="path192"
         inkscape:connector-curvature="0" /></clipPath><clipPath
       clipPathUnits="userSpaceOnUse"
       id="clipPath208"><path
         d="m 19.715,821.339 v -17.008 l 114.384,10e-4 c 4.147,0 7.508,-3.404 7.508,-7.551 v 0 -50.566 h 426.198 c 4.148,0 7.492,3.362 7.492,7.509 v 0 60.107 c 0,4.146 -3.362,7.508 -7.508,7.508 v 0 z"
         id="path206"
         inkscape:connector-curvature="0" /></clipPath><clipPath
       clipPathUnits="userSpaceOnUse"
       id="clipPath220"><path
         d="M 0,0 H 595.276 V 841.89 H 0 Z"
         id="path218"
         inkscape:connector-curvature="0" /></clipPath><clipPath
       clipPathUnits="userSpaceOnUse"
       id="clipPath244"><path
         d="M 0,841.89 H 595.276 V 0 H 0 Z"
         id="path242"
         inkscape:connector-curvature="0" /></clipPath><clipPath
       clipPathUnits="userSpaceOnUse"
       id="clipPath260"><path
         d="M 0,841.89 H 595.276 V 0 H 0 Z"
         id="path258"
         inkscape:connector-curvature="0" /></clipPath><clipPath
       clipPathUnits="userSpaceOnUse"
       id="clipPath276"><path
         d="M 0,841.89 H 595.276 V 0 H 0 Z"
         id="path274"
         inkscape:connector-curvature="0" /></clipPath><clipPath
       clipPathUnits="userSpaceOnUse"
       id="clipPath348"><path
         d="M 0,841.89 H 595.276 V 0 H 0 Z"
         id="path346"
         inkscape:connector-curvature="0" /></clipPath><clipPath
       clipPathUnits="userSpaceOnUse"
       id="clipPath406"><path
         d="M 0,841.89 H 595.276 V 0 H 0 Z"
         id="path404"
         inkscape:connector-curvature="0" /></clipPath><clipPath
       clipPathUnits="userSpaceOnUse"
       id="clipPath436"><path
         d="M 0,841.89 H 595.276 V 0 H 0 Z"
         id="path434"
         inkscape:connector-curvature="0" /></clipPath><clipPath
       clipPathUnits="userSpaceOnUse"
       id="clipPath454"><path
         d="M 0,841.89 H 595.276 V 0 H 0 Z"
         id="path452"
         inkscape:connector-curvature="0" /></clipPath><clipPath
       clipPathUnits="userSpaceOnUse"
       id="clipPath476"><path
         d="M 0,841.89 H 595.276 V 0 H 0 Z"
         id="path474"
         inkscape:connector-curvature="0" /></clipPath><clipPath
       clipPathUnits="userSpaceOnUse"
       id="clipPath496"><path
         d="M 0,841.89 H 595.276 V 0 H 0 Z"
         id="path494"
         inkscape:connector-curvature="0" /></clipPath><clipPath
       clipPathUnits="userSpaceOnUse"
       id="clipPath510"><path
         d="M 0,841.89 H 595.276 V 0 H 0 Z"
         id="path508"
         inkscape:connector-curvature="0" /></clipPath><clipPath
       clipPathUnits="userSpaceOnUse"
       id="clipPath526"><path
         d="M 0,841.89 H 595.276 V 0 H 0 Z"
         id="path524"
         inkscape:connector-curvature="0" /></clipPath><clipPath
       clipPathUnits="userSpaceOnUse"
       id="clipPath542"><path
         d="M 0,841.89 H 595.276 V 0 H 0 Z"
         id="path540"
         inkscape:connector-curvature="0" /></clipPath><clipPath
       clipPathUnits="userSpaceOnUse"
       id="clipPath558"><path
         d="M 0,841.89 H 595.276 V 0 H 0 Z"
         id="path556"
         inkscape:connector-curvature="0" /></clipPath><clipPath
       clipPathUnits="userSpaceOnUse"
       id="clipPath574"><path
         d="M 0,841.89 H 595.276 V 0 H 0 Z"
         id="path572"
         inkscape:connector-curvature="0" /></clipPath></defs><sodipodi:namedview
     pagecolor="#ffffff"
     bordercolor="#666666"
     borderopacity="1"
     objecttolerance="10"
     gridtolerance="10"
     guidetolerance="10"
     inkscape:pageopacity="0"
     inkscape:pageshadow="2"
     inkscape:window-width="1920"
     inkscape:window-height="1005"
     id="namedview4"
     showgrid="false"
     fit-margin-top="0"
     fit-margin-left="0"
     fit-margin-right="0"
     fit-margin-bottom="0"
     inkscape:zoom="0.85455339"
     inkscape:cx="175.05354"
     inkscape:cy="182.08414"
     inkscape:window-x="-9"
     inkscape:window-y="-9"
     inkscape:window-maximized="1"
     inkscape:current-layer="g10" /><g
     id="g10"
     inkscape:groupmode="layer"
     inkscape:label="zalhaverut"
     transform="matrix(1.3333333,0,0,-1.3333333,86.408607,1050.4658)"><path
       inkscape:connector-curvature="0"
       id="path22"
       style="fill:#1f242d;fill-opacity:1;fill-rule:nonzero;stroke:none;stroke-width:2.47304606"
       d="m 65.600229,707.67333 c 0,25.25721 -20.474348,45.73157 -45.731567,45.73157 -25.2572202,0 -45.731568,-20.47436 -45.731568,-45.73157 0,-25.25722 20.4743478,-45.73158 45.731568,-45.73158 25.257219,0 45.731567,20.47436 45.731567,45.73158 m -8.937588,0 c 0,-20.32103 -16.47296,-36.79398 -36.793979,-36.79398 -20.32101995,0 -36.79398,16.47295 -36.79398,36.79398 0,20.32102 16.47296005,36.79397 36.79398,36.79397 20.321019,0 36.793979,-16.47295 36.793979,-36.79397" /><path
       inkscape:connector-curvature="0"
       id="path26"
       style="fill:#1f242d;fill-opacity:1;fill-rule:nonzero;stroke:none;stroke-width:2.47304606"
       d="M 38.280737,729.49475 H 25.732502 c -14.279368,0 -28.8085147,-10.15432 -28.8085147,-25.42538 0,-15.02377 12.7955413,-17.50176 25.0939977,-17.50176 6.768729,0 9.409941,0.0841 9.409941,0.0841 l 1.817689,8.74964 h -8.089334 c -5.945202,0 -10.401632,3.6329 -10.401632,9.74133 0,3.38313 0.825998,5.86111 2.062521,9.07855 1.157386,3.05668 4.622124,7.10012 8.255027,7.10012 h 10.896242 z" /><path
       inkscape:connector-curvature="0"
       id="path30"
       style="fill:#1f242d;fill-opacity:1;fill-rule:nonzero;stroke:none;stroke-width:2.47304606"
       d="m 100.02948,710.30935 v 11.24741 c 1.55308,0 4.95105,-0.76911 4.95105,-5.83391 v -10.82699 c 0,-5.06233 -3.39797,-5.83146 -4.95105,-5.83146 -0.008,11.24 0,11.24495 0,11.24495 m -135.127235,0.01 v -25.3042 c -12.432002,0 -22.128816,4.90157 -22.128816,16.29243 v 18.02108 c 0,9.93176 7.374624,14.93226 17.501748,16.05007 6.44723,28.25703 30.8537216,52.47062 59.904595,52.47062 29.048397,0 53.291669,-24.21112 59.691912,-52.46814 10.141969,-1.11288 17.528946,-6.11338 17.528946,-16.05255 V 701.3071 c 0,-11.39086 -9.696807,-16.29243 -22.128812,-16.29243 v 25.3042 l -0.0025,25.14842 c -9.976267,21.89387 -30.861142,38.57951 -55.089573,38.57951 -24.2358515,0 -45.234486,-16.69554 -55.275052,-38.60178 z m -24.757664,-0.01 c 0,0 0.0074,-0.005 0,-11.24495 -1.553073,0 -4.951038,0.76913 -4.951038,5.83146 v 10.82699 c 0,5.0648 3.397965,5.83391 4.951038,5.83391 z" /><path
       d="m -28.424735,616.67711 h -5.917999 v 12.00911 h 5.917999 z m 8.455346,-7.16442 v 26.33795 h -25.081634 v -7.16442 h 2.255418 v -19.17353 z"
       style="fill:#1f242d;fill-opacity:1;fill-rule:nonzero;stroke:none;stroke-width:2.47304606"
       id="path178"
       inkscape:connector-curvature="0" /><path
       inkscape:connector-curvature="0"
       id="path182"
       style="fill:#1f242d;fill-opacity:1;fill-rule:nonzero;stroke:none;stroke-width:2.47304606"
       d="m -6.0384739,630.94732 v 7.90138 h -8.4553441 v -13.854 z m 11.2721436,0 v 7.90138 h -8.4553442 v -13.854 z" /><path
       inkscape:connector-curvature="0"
       id="path186"
       style="fill:#1f242d;fill-opacity:1;fill-rule:nonzero;stroke:none;stroke-width:2.47304606"
       d="m 22.378556,609.51344 v 26.33793 H 9.9787024 v -7.1644 h 3.9445096 v -19.17353 z" /><path
       d="m 28.311888,604.2451 h 8.452872 v 19.80662 h -8.452872 z m 25.363561,13.79961 v 17.80593 H 28.311888 v -7.21635 h 16.908216 v -10.69345 c 0,-0.68505 -0.620734,-1.26373 -1.409636,-1.26373 h -3.833222 v -7.16442 h 3.833222 c 5.467905,0 9.864981,3.79117 9.864981,8.53202"
       style="fill:#1f242d;fill-opacity:1;fill-rule:nonzero;stroke:none;stroke-width:2.47304606"
       id="path196"
       inkscape:connector-curvature="0" /><path
       inkscape:connector-curvature="0"
       id="path200"
       style="fill:#1f242d;fill-opacity:1;fill-rule:nonzero;stroke:none;stroke-width:2.47304606"
       d="m 85.268612,609.51344 -6.029286,9.16511 4.958456,3.58097 v 13.59185 h -8.45287 v -10.21863 l -0.734496,-0.52676 -6.988828,10.74539 h -9.63746 l 6.031759,-9.21951 -5.01781,-3.52903 v -13.58939 h 8.455344 v 10.21862 l 0.732022,0.52676 6.988828,-10.74538 z" /></g></svg>